# xmcd
#
# Track frame offsets:
#	150
#	17112
#	35122
#	57235
#	75177
#	99045
#	124215
#	148300
#	169260
#	192185
#
# Disc length: 2840 seconds
#
# Revision: 1
# Processed by: cddbd v1.5PL3 Copyright (c) Steve Scherf et al.
# Submitted via: CDex 1.50Beta5
#
DISCID=810b160a
DTITLE=B.B.クイーンズ - 真夏のB.B.クイーンズ
DYEAR=1991
DGENRE=Pop
TTITLE0=ぼくらの七日間戦争〜Seven Dyas Dream〜
TTITLE1=キラキラの夏（大好きなこと）
TTITLE2=いとしのSummer Days
TTITLE3=ないしょだよ
TTITLE4=I Remmber You
TTITLE5=おしえて…（地球こども共和国国歌）
TTITLE6=Stay In MY Eyes
TTITLE7=夏の彼方
TTITLE8=風のNorth Shore
TTITLE9=ココナッツに夢心地
EXTD=
EXTT0=
EXTT1=
EXTT2=
EXTT3=
EXTT4=
EXTT5=
EXTT6=
EXTT7=
EXTT8=
EXTT9=
PLAYORDER=
